<svg id="svg5327" xmlns="http://www.w3.org/2000/svg" viewBox="0 0 118 104"><defs><style>.cls-1{fill:#fff;}</style></defs><title>Artboard 1</title><g id="g5335"><g id="g5337"><path id="path5339" class="cls-1" d="M64.29921,2.98251A5.99834,5.99834,0,0,0,53.943,2.95874l-25.72376,44.535A61.42846,61.42846,0,0,0,59.133,55.79623a61.44677,61.44677,0,0,0,30.88-8.28375l-25.71375-44.53"/><path id="path5341" class="cls-1" d="M117.07671,94.72753,91.3817,50.18628a61.74943,61.74943,0,0,0-30.935,53.49126l51.42874.02a6.00984,6.00984,0,0,0,5.20126-8.97"/><path id="path5343" class="cls-1" d="M26.61669,50.09128.78294,94.56629a6.0151,6.0151,0,0,0,.015,5.96124,6.15485,6.15485,0,0,0,5.185,3.15l51.41.005a61.35628,61.35628,0,0,0-8.1925-30.90875,61.26436,61.26436,0,0,0-22.58374-22.6825"/></g></g></svg>