<?xml version="1.0" encoding="utf-8"?>
<!-- Generator: Adobe Illustrator 23.0.3, SVG Export Plug-In . SVG Version: 6.00 Build 0)  -->
<svg version="1.1" id="Layer_1" xmlns="http://www.w3.org/2000/svg" xmlns:xlink="http://www.w3.org/1999/xlink" x="0px" y="0px"
	 viewBox="0 0 112 104" style="enable-background:new 0 0 112 104;" xml:space="preserve">
<style type="text/css">
	.st0{fill-rule:evenodd;clip-rule:evenodd;fill:#FFFFFF;}
</style>
<path class="st0" d="M69.9,0C65,0,60.6,0.9,56.2,2.6C51.8,0.9,47.4,0,42.6,0C20.5,0,0.3,21.1,0.3,49.8c0.9,30.8,26.4,55.1,57.3,54.2
	c29.5-0.9,53.3-24.7,54.2-54.2C112.2,21.1,91.9,0,69.9,0 M56.2,17.2c5.7,4,9.7,11,9.7,18.1c0.4,5.3-3.1,10.6-8.8,11
	c-5.3,0.4-10.6-3.1-11-8.8c0-0.9,0-1.3,0-2.2C46.5,27.8,50,21.1,56.2,17.2 M56.2,92.1c-23.4,0-42.3-18.9-42.3-42.3c0,0,0,0,0-0.4
	c0-21.6,15.9-36.6,28.2-36.1c-6.2,6.2-9.3,14.5-9.7,22.9C31.5,48.9,41.2,60.4,54,61.2c12.8,0.9,24.2-8.8,25.1-21.6
	c0-1.3,0-2.2,0-3.5c0-8.4-3.5-16.3-9.3-22.5c12.3-0.4,28.2,14.5,28.2,36.1C98.5,72.7,79.6,92.1,56.2,92.1L56.2,92.1"/>
</svg>
