<?xml version="1.0" encoding="UTF-8"?>
<svg width="19px" height="16px" viewBox="0 0 19 16" version="1.1" xmlns="http://www.w3.org/2000/svg" xmlns:xlink="http://www.w3.org/1999/xlink">
    <!-- Generator: Sketch 52.3 (67297) - http://www.bohemiancoding.com/sketch -->
    <title>Path</title>
    <desc>Created with Sketch.</desc>
    <g id="Britehouse-DD" stroke="none" stroke-width="1" fill="none" fill-rule="evenodd">
        <g id="Contact-us" transform="translate(-963.000000, -1042.000000)" fill="#B5BBC1">
            <g id="Group-13" transform="translate(954.000000, 831.000000)">
                <path d="M26.4013568,214.314733 C25.5686728,213.291366 24.4376252,212.483033 23.0085057,211.889805 C21.5794227,211.29665 20.0181266,211 18.325164,211 C17.0623408,211 15.8550711,211.175154 14.703355,211.525535 C13.5516389,211.87588 12.5595118,212.349434 11.7269007,212.946089 C10.8941438,213.542816 10.2316928,214.252254 9.73900112,215.074367 C9.24630941,215.896516 9,216.758653 9,217.660634 C9,218.701315 9.31385585,219.676456 9.94182272,220.585362 C10.5697896,221.494159 11.4282819,222.257474 12.5177008,222.874979 C12.4412964,223.152418 12.3511129,223.416152 12.2470046,223.665742 C12.1429328,223.915515 12.0492864,224.12045 11.9660289,224.280003 C11.8826986,224.439555 11.7700604,224.616569 11.6277135,224.810824 C11.4855852,225.005043 11.3780504,225.142141 11.3051819,225.221826 C11.2323863,225.301657 11.1127128,225.433687 10.9460885,225.617299 C10.779683,225.801311 10.6720753,225.920911 10.623557,225.976538 C10.6165217,225.979782 10.5888178,226.011241 10.5402631,226.070111 C10.4917448,226.128982 10.4673946,226.158436 10.4673946,226.158436 L10.4049515,226.251973 C10.3702123,226.304136 10.3546106,226.337053 10.3580371,226.35065 C10.3615366,226.364246 10.3546106,226.399168 10.3372592,226.454576 C10.3198714,226.510202 10.3216576,226.551867 10.3424355,226.579717 L10.3424355,226.590069 C10.3703216,226.715065 10.431015,226.815601 10.524625,226.891787 C10.6182349,226.968045 10.7241658,226.999321 10.8420532,226.985214 C11.2931526,226.929734 11.6885891,226.853767 12.0285085,226.756439 C13.8463936,226.291378 15.4422468,225.452096 16.8159585,224.237682 C17.3362083,224.293162 17.8392525,224.321012 18.3249453,224.321012 C20.0178714,224.321012 21.5790946,224.024362 23.0083235,223.430952 C24.4375523,222.837797 25.5684905,222.029427 26.4010287,221.006242 C27.2337127,219.983313 27.65,218.86783 27.65,217.660597 C27.6500365,216.453327 27.2337856,215.337918 26.4013568,214.314733 Z" id="Path"></path>
            </g>
        </g>
    </g>
</svg>