<?xml version="1.0" encoding="UTF-8"?>
<svg width="15px" height="16px" viewBox="0 0 15 16" version="1.1" xmlns="http://www.w3.org/2000/svg" xmlns:xlink="http://www.w3.org/1999/xlink">
    <!-- Generator: Sketch 52.3 (67297) - http://www.bohemiancoding.com/sketch -->
    <title>Group 2</title>
    <desc>Created with Sketch.</desc>
    <g id="Britehouse-DD" stroke="none" stroke-width="1" fill="none" fill-rule="evenodd">
        <g id="Contact-us" transform="translate(-964.000000, -843.000000)" fill="#B5BBC1">
            <g id="Group-13" transform="translate(954.000000, 831.000000)">
                <g id="Group-2" transform="translate(10.000000, 12.000000)">
                    <path d="M6.9958451,8.22926932 C8.09911617,8.22926932 9.0407836,7.83892763 9.82110251,7.05857228 C10.6014943,6.27821693 10.9917631,5.3365495 10.9917631,4.23342422 C10.9917631,3.13048116 10.6014943,2.18877729 9.82110251,1.40823971 C9.04052847,0.627920799 8.0988246,0.237761345 6.9958451,0.237761345 C5.8928656,0.237761345 4.95101595,0.627920799 4.17069704,1.40823971 C3.39023235,2.18877729 3,3.13044472 3,4.23342422 C3,5.3365495 3.39023235,6.27821693 4.17069704,7.05857228 C4.95123462,7.83892763 5.89282916,8.22926932 6.9958451,8.22926932" id="Fill-1"></path>
                    <path d="M14.6146697,12.1231919 C14.5903235,11.7729777 14.5417039,11.3948092 14.4689932,10.9889413 C14.3961367,10.5830734 14.3041093,10.2069094 14.1931298,9.85990258 C14.0820774,9.51315087 13.9329021,9.17489119 13.7456036,8.84534221 C13.5584146,8.51582968 13.343344,8.23493674 13.1003918,8.00244472 C12.8574396,7.77006203 12.5609476,7.58462239 12.2108793,7.44590713 C11.8603736,7.30722832 11.4736036,7.23776135 11.0504237,7.23776135 C10.9880638,7.23776135 10.8423508,7.31233082 10.6133941,7.46150622 C10.384656,7.61068162 10.1262141,7.77720554 9.83832346,7.96111442 C9.55046925,8.14469529 9.17569021,8.31132854 8.71453303,8.46024882 C8.25319362,8.60942422 7.79021412,8.68403014 7.32526651,8.68403014 C6.86050114,8.68403014 6.39748519,8.60942422 5.93621868,8.46024882 C5.47498861,8.31132854 5.10028246,8.14469529 4.8123918,7.96111442 C4.52453759,7.77720554 4.26616856,7.61071807 4.03728474,7.46150622 C3.80829157,7.31233082 3.66268793,7.23776135 3.60025513,7.23776135 C3.17711162,7.23776135 2.79034169,7.30722832 2.44005467,7.44590713 C2.08969476,7.58462239 1.79316629,7.77020781 1.55032346,8.00244472 C1.30755353,8.23493674 1.09248292,8.51582968 0.905257403,8.84534221 C0.718031891,9.17489119 0.568892938,9.51329665 0.457876993,9.85990258 C0.346897494,10.2069094 0.254943052,10.5830734 0.182123007,10.9889413 C0.109230068,11.3948092 0.0606833713,11.7727226 0.0363735763,12.1231919 C0.0121002278,12.4736611 -3.37507799e-14,12.8326588 -3.37507799e-14,13.2003308 C-3.37507799e-14,14.0326224 0.253266515,14.6900803 0.759617312,15.1722306 C1.26607745,15.6541987 1.93902506,15.8951463 2.77838724,15.8951463 L11.8729841,15.8951463 C12.7122733,15.8951463 13.3851845,15.6541987 13.8916811,15.1722306 C14.3983235,14.6900803 14.6514077,14.0327317 14.6514077,13.2003308 C14.6513349,12.8326588 14.6392346,12.4736611 14.6146697,12.1231919" id="Fill-3"></path>
                </g>
            </g>
        </g>
    </g>
</svg>