<?xml version="1.0" encoding="UTF-8"?>
<svg width="13px" height="17px" viewBox="0 0 13 17" version="1.1" xmlns="http://www.w3.org/2000/svg" xmlns:xlink="http://www.w3.org/1999/xlink">
    <!-- Generator: Sketch 52.3 (67297) - http://www.bohemiancoding.com/sketch -->
    <title>building-front</title>
    <desc>Created with Sketch.</desc>
    <g id="Britehouse-DD" stroke="none" stroke-width="1" fill="none" fill-rule="evenodd">
        <g id="Text-fields---webpart" transform="translate(-400.000000, -268.000000)" fill="#B5BBC1">
            <g id="building-front" transform="translate(400.000000, 268.000000)">
                <path d="M12.818871,0.174967742 C12.7021935,0.0583548387 12.5640645,0 12.4044516,0 L0.615774194,0 C0.456032258,0 0.317935484,0.0583548387 0.201258065,0.174967742 C0.0846451613,0.291645161 0.0262903226,0.429741935 0.0262903226,0.589387097 L0.0262903226,15.9146129 C0.0262903226,16.0743548 0.0846451613,16.2124516 0.201258065,16.3291613 C0.318064516,16.4458387 0.45616129,16.504129 0.615774194,16.504129 L12.4044516,16.504129 C12.5640645,16.504129 12.7022903,16.4458387 12.818871,16.3291613 C12.9353226,16.2124839 12.9939677,16.0743871 12.9939677,15.9146129 L12.9939677,0.589387097 C12.9938387,0.429774194 12.9355484,0.291677419 12.818871,0.174967742 Z M11.8149677,15.3253226 L8.27845161,15.3253226 L8.27845161,13.2623226 C8.27845161,13.1823871 8.24919355,13.1132903 8.19112903,13.055 C8.13251613,12.9967097 8.06374194,12.9675484 7.98380645,12.9675484 L5.03648387,12.9675484 C4.95667742,12.9675484 4.8876129,12.9967097 4.82929032,13.055 C4.771,13.1132903 4.74180645,13.1823871 4.74180645,13.2623226 L4.74180645,15.3253226 L1.20516129,15.3253226 L1.20516129,1.17877419 L11.8149677,1.17877419 L11.8149677,15.3253226 Z" id="Shape" fill-rule="nonzero"></path>
                <path d="M2.67877419,12.9675484 L3.26816129,12.9675484 C3.34796774,12.9675484 3.41706452,12.9385484 3.47535484,12.880129 C3.53370968,12.8216452 3.56290323,12.7527419 3.56290323,12.6728065 L3.56290323,12.0833226 C3.56290323,12.0036129 3.53370968,11.9346452 3.47535484,11.8762258 C3.41706452,11.8179355 3.34796774,11.7888065 3.26816129,11.7888065 L2.67877419,11.7888065 C2.59896774,11.7888065 2.52990323,11.8179355 2.47158065,11.8762258 C2.41322581,11.9346452 2.38409677,12.0036129 2.38409677,12.0833226 L2.38409677,12.6728065 C2.38409677,12.7527419 2.41322581,12.8216129 2.47158065,12.880129 C2.52993548,12.9384194 2.59896774,12.9675484 2.67877419,12.9675484 Z" id="Path"></path>
                <path d="M2.67877419,10.6098065 L3.26816129,10.6098065 C3.34796774,10.6098065 3.41706452,10.5806452 3.47535484,10.5223548 C3.53370968,10.463871 3.56290323,10.3949677 3.56290323,10.3150323 L3.56290323,9.72554839 C3.56290323,9.64583871 3.53370968,9.57664516 3.47535484,9.51845161 C3.41706452,9.46016129 3.34796774,9.43103226 3.26816129,9.43103226 L2.67877419,9.43103226 C2.59896774,9.43103226 2.52990323,9.46016129 2.47158065,9.51845161 C2.41322581,9.57664516 2.38409677,9.64583871 2.38409677,9.72554839 L2.38409677,10.3150323 C2.38409677,10.3949677 2.41322581,10.4638387 2.47158065,10.5223548 C2.52993548,10.5806452 2.59896774,10.6098065 2.67877419,10.6098065 Z" id="Path"></path>
                <path d="M5.0366129,10.6098065 L5.62603226,10.6098065 C5.70580645,10.6098065 5.77490323,10.5806452 5.83322581,10.5223548 C5.89151613,10.463871 5.92070968,10.3949677 5.92070968,10.3150323 L5.92070968,9.72554839 C5.92070968,9.64583871 5.8913871,9.57674194 5.83322581,9.51845161 C5.77487097,9.46016129 5.70577419,9.43103226 5.62603226,9.43103226 L5.0366129,9.43103226 C4.95680645,9.43103226 4.88774194,9.46016129 4.82941935,9.51845161 C4.77112903,9.57674194 4.74193548,9.64583871 4.74193548,9.72554839 L4.74193548,10.3150323 C4.74193548,10.3949677 4.77112903,10.4638387 4.82941935,10.5223548 C4.88774194,10.5806452 4.95680645,10.6098065 5.0366129,10.6098065 Z" id="Path"></path>
                <path d="M2.67877419,8.25203226 L3.26816129,8.25203226 C3.34796774,8.25203226 3.41706452,8.22290323 3.47535484,8.16454839 C3.53370968,8.10619355 3.56290323,8.03716129 3.56290323,7.95732258 L3.56290323,7.36793548 C3.56290323,7.28809677 3.53370968,7.219 3.47535484,7.16070968 C3.41706452,7.10235484 3.34796774,7.07322581 3.26816129,7.07322581 L2.67877419,7.07322581 C2.59896774,7.07322581 2.52990323,7.10235484 2.47158065,7.16070968 C2.41322581,7.219 2.38409677,7.28809677 2.38409677,7.36793548 L2.38409677,7.95732258 C2.38409677,8.03716129 2.41322581,8.10619355 2.47158065,8.16454839 C2.52993548,8.22290323 2.59896774,8.25203226 2.67877419,8.25203226 Z" id="Path"></path>
                <path d="M9.75196774,12.9675484 L10.3414516,12.9675484 C10.4213871,12.9675484 10.4903548,12.9385484 10.5487742,12.880129 C10.6071935,12.8216452 10.6360968,12.7527419 10.6360968,12.6728065 L10.6360968,12.0833226 C10.6360968,12.0036129 10.6069677,11.9346452 10.5487742,11.8762258 C10.4903548,11.8179355 10.4213871,11.7888065 10.3414516,11.7888065 L9.75196774,11.7888065 C9.67225806,11.7888065 9.60316129,11.8179355 9.54487097,11.8762258 C9.48645161,11.9346452 9.45741935,12.0036129 9.45741935,12.0833226 L9.45741935,12.6728065 C9.45741935,12.7527419 9.48645161,12.8216129 9.54487097,12.880129 C9.60303226,12.9384194 9.67225806,12.9675484 9.75196774,12.9675484 Z" id="Path"></path>
                <path d="M7.39432258,10.6098065 L7.98380645,10.6098065 C8.06374194,10.6098065 8.1326129,10.5806452 8.19112903,10.5223548 C8.24919355,10.463871 8.27832258,10.3949677 8.27832258,10.3150323 L8.27832258,9.72554839 C8.27832258,9.64583871 8.24919355,9.57674194 8.19112903,9.51845161 C8.13264516,9.46016129 8.06374194,9.43103226 7.98380645,9.43103226 L7.39432258,9.43103226 C7.3146129,9.43103226 7.24529032,9.46016129 7.187,9.51845161 C7.12890323,9.57674194 7.09954839,9.64583871 7.09954839,9.72554839 L7.09954839,10.3150323 C7.09954839,10.3949677 7.12880645,10.4638387 7.187,10.5223548 C7.24548387,10.5806452 7.3146129,10.6098065 7.39432258,10.6098065 Z" id="Path"></path>
                <path d="M5.0366129,8.25203226 L5.62603226,8.25203226 C5.70580645,8.25203226 5.77490323,8.22290323 5.83322581,8.16454839 C5.89151613,8.10619355 5.92070968,8.03716129 5.92070968,7.95732258 L5.92070968,7.36793548 C5.92070968,7.28809677 5.8913871,7.21912903 5.83322581,7.16070968 C5.77487097,7.10235484 5.70577419,7.07322581 5.62603226,7.07322581 L5.0366129,7.07322581 C4.95680645,7.07322581 4.88774194,7.10235484 4.82941935,7.16070968 C4.77112903,7.219 4.74193548,7.28809677 4.74193548,7.36793548 L4.74193548,7.95732258 C4.74193548,8.03716129 4.77112903,8.10619355 4.82941935,8.16454839 C4.88774194,8.22290323 4.95680645,8.25203226 5.0366129,8.25203226 Z" id="Path"></path>
                <path d="M2.67877419,5.89435484 L3.26816129,5.89435484 C3.34796774,5.89435484 3.41706452,5.86516129 3.47535484,5.80687097 C3.53370968,5.74851613 3.56290323,5.67958065 3.56290323,5.59967742 L3.56290323,5.01029032 C3.56290323,4.93048387 3.53370968,4.86125806 3.47535484,4.80309677 C3.41706452,4.74474194 3.34796774,4.71554839 3.26816129,4.71554839 L2.67877419,4.71554839 C2.59896774,4.71554839 2.52990323,4.74474194 2.47158065,4.80309677 C2.41322581,4.8613871 2.38409677,4.93048387 2.38409677,5.01029032 L2.38409677,5.59967742 C2.38409677,5.67948387 2.41322581,5.74854839 2.47158065,5.80687097 C2.52993548,5.86512903 2.59896774,5.89435484 2.67877419,5.89435484 Z" id="Path"></path>
                <path d="M9.75196774,10.6098065 L10.3414516,10.6098065 C10.4213871,10.6098065 10.4903548,10.5806452 10.5487742,10.5223548 C10.6071935,10.463871 10.6360968,10.3949677 10.6360968,10.3150323 L10.6360968,9.72554839 C10.6360968,9.64583871 10.6069677,9.57674194 10.5487742,9.51845161 C10.4903548,9.46016129 10.4213871,9.43103226 10.3414516,9.43103226 L9.75196774,9.43103226 C9.67225806,9.43103226 9.60316129,9.46016129 9.54487097,9.51845161 C9.48645161,9.57664516 9.45741935,9.64583871 9.45741935,9.72554839 L9.45741935,10.3150323 C9.45741935,10.3949677 9.48645161,10.4638387 9.54487097,10.5223548 C9.60303226,10.5806452 9.67225806,10.6098065 9.75196774,10.6098065 Z" id="Path"></path>
                <path d="M7.39432258,8.25203226 L7.98380645,8.25203226 C8.06374194,8.25203226 8.1326129,8.22290323 8.19112903,8.16454839 C8.24919355,8.10619355 8.27832258,8.03716129 8.27832258,7.95732258 L8.27832258,7.36793548 C8.27832258,7.28809677 8.24919355,7.21912903 8.19112903,7.16070968 C8.13264516,7.10235484 8.06374194,7.07322581 7.98380645,7.07322581 L7.39432258,7.07322581 C7.3146129,7.07322581 7.24529032,7.10235484 7.187,7.16070968 C7.12890323,7.219 7.09954839,7.28809677 7.09954839,7.36793548 L7.09954839,7.95732258 C7.09954839,8.03716129 7.12880645,8.10619355 7.187,8.16454839 C7.24548387,8.22290323 7.3146129,8.25203226 7.39432258,8.25203226 Z" id="Path"></path>
                <path d="M5.0366129,5.89435484 L5.62603226,5.89435484 C5.70580645,5.89435484 5.77490323,5.86516129 5.83322581,5.80687097 C5.89151613,5.74851613 5.92070968,5.67958065 5.92070968,5.59967742 L5.92070968,5.01029032 C5.92070968,4.93048387 5.8913871,4.86125806 5.83322581,4.80309677 C5.77487097,4.74474194 5.70577419,4.71554839 5.62603226,4.71554839 L5.0366129,4.71554839 C4.95680645,4.71554839 4.88774194,4.74474194 4.82941935,4.80309677 C4.77112903,4.8613871 4.74193548,4.93048387 4.74193548,5.01029032 L4.74193548,5.59967742 C4.74193548,5.67948387 4.77112903,5.74854839 4.82941935,5.80687097 C4.88774194,5.86512903 4.95680645,5.89435484 5.0366129,5.89435484 Z" id="Path"></path>
                <path d="M2.67877419,3.53651613 L3.26816129,3.53651613 C3.34796774,3.53651613 3.41706452,3.50732258 3.47535484,3.449 C3.53370968,3.39070968 3.56290323,3.3216129 3.56290323,3.24177419 L3.56290323,2.65241935 C3.56290323,2.57258065 3.53370968,2.50354839 3.47535484,2.44519355 C3.41706452,2.38690323 3.34796774,2.35770968 3.26816129,2.35770968 L2.67877419,2.35770968 C2.59896774,2.35770968 2.52990323,2.38690323 2.47158065,2.44519355 C2.41322581,2.50354839 2.38409677,2.57258065 2.38409677,2.65241935 L2.38409677,3.24180645 C2.38409677,3.32164516 2.41322581,3.39074194 2.47158065,3.44903226 C2.52993548,3.50735484 2.59896774,3.53651613 2.67877419,3.53651613 Z" id="Path"></path>
                <path d="M9.75196774,8.25203226 L10.3414516,8.25203226 C10.4213871,8.25203226 10.4903548,8.22290323 10.5487742,8.16454839 C10.6071935,8.10619355 10.6360968,8.03716129 10.6360968,7.95732258 L10.6360968,7.36793548 C10.6360968,7.28809677 10.6069677,7.21912903 10.5487742,7.16070968 C10.4903548,7.10235484 10.4213871,7.07322581 10.3414516,7.07322581 L9.75196774,7.07322581 C9.67225806,7.07322581 9.60316129,7.10235484 9.54487097,7.16070968 C9.48645161,7.219 9.45741935,7.28809677 9.45741935,7.36793548 L9.45741935,7.95732258 C9.45741935,8.03716129 9.48645161,8.10619355 9.54487097,8.16454839 C9.60303226,8.22290323 9.67225806,8.25203226 9.75196774,8.25203226 Z" id="Path"></path>
                <path d="M7.39432258,5.89435484 L7.98380645,5.89435484 C8.06374194,5.89435484 8.1326129,5.86516129 8.19112903,5.80687097 C8.24919355,5.74851613 8.27832258,5.67958065 8.27832258,5.59967742 L8.27832258,5.01029032 C8.27832258,4.93048387 8.24919355,4.86125806 8.19112903,4.80309677 C8.13264516,4.74474194 8.06374194,4.71554839 7.98380645,4.71554839 L7.39432258,4.71554839 C7.3146129,4.71554839 7.24551613,4.74474194 7.187,4.80309677 C7.12890323,4.8613871 7.09954839,4.93048387 7.09954839,5.01029032 L7.09954839,5.59967742 C7.09954839,5.67948387 7.12880645,5.74854839 7.187,5.80687097 C7.24548387,5.86512903 7.3146129,5.89435484 7.39432258,5.89435484 Z" id="Path"></path>
                <path d="M5.0366129,3.53651613 L5.62603226,3.53651613 C5.70580645,3.53651613 5.77490323,3.50732258 5.83322581,3.449 C5.89151613,3.39070968 5.92070968,3.3216129 5.92070968,3.24177419 L5.92070968,2.65241935 C5.92070968,2.57258065 5.8913871,2.50354839 5.83322581,2.44519355 C5.77487097,2.38690323 5.70577419,2.35770968 5.62603226,2.35770968 L5.0366129,2.35770968 C4.95680645,2.35770968 4.88774194,2.38690323 4.82941935,2.44519355 C4.77112903,2.50354839 4.74193548,2.57258065 4.74193548,2.65241935 L4.74193548,3.24180645 C4.74193548,3.32164516 4.77112903,3.39074194 4.82941935,3.44903226 C4.88774194,3.50735484 4.95680645,3.53651613 5.0366129,3.53651613 Z" id="Path"></path>
                <path d="M9.75196774,5.89435484 L10.3414516,5.89435484 C10.4213871,5.89435484 10.4903548,5.86516129 10.5487742,5.80687097 C10.6071935,5.74851613 10.6360968,5.67958065 10.6360968,5.59967742 L10.6360968,5.01029032 C10.6360968,4.93048387 10.6069677,4.86125806 10.5487742,4.80309677 C10.4903548,4.74474194 10.4213871,4.71554839 10.3414516,4.71554839 L9.75196774,4.71554839 C9.67225806,4.71554839 9.60316129,4.74474194 9.54487097,4.80309677 C9.48645161,4.8613871 9.45741935,4.93048387 9.45741935,5.01029032 L9.45741935,5.59967742 C9.45741935,5.67948387 9.48645161,5.74854839 9.54487097,5.80687097 C9.60303226,5.86512903 9.67225806,5.89435484 9.75196774,5.89435484 Z" id="Path"></path>
                <path d="M7.39432258,3.53651613 L7.98380645,3.53651613 C8.06374194,3.53651613 8.1326129,3.50732258 8.19112903,3.449 C8.24919355,3.39070968 8.27832258,3.3216129 8.27832258,3.24177419 L8.27832258,2.65241935 C8.27832258,2.57258065 8.24919355,2.50354839 8.19112903,2.44519355 C8.13264516,2.38690323 8.06374194,2.35770968 7.98380645,2.35770968 L7.39432258,2.35770968 C7.3146129,2.35770968 7.24529032,2.38690323 7.187,2.44519355 C7.12890323,2.50354839 7.09954839,2.57258065 7.09954839,2.65241935 L7.09954839,3.24180645 C7.09954839,3.32164516 7.12880645,3.39074194 7.187,3.44903226 C7.24548387,3.50735484 7.3146129,3.53651613 7.39432258,3.53651613 Z" id="Path"></path>
                <path d="M9.75196774,3.53651613 L10.3414516,3.53651613 C10.4213871,3.53651613 10.4903548,3.50732258 10.5487742,3.449 C10.6071935,3.39070968 10.6360968,3.3216129 10.6360968,3.24177419 L10.6360968,2.65241935 C10.6360968,2.57258065 10.6069677,2.50354839 10.5487742,2.44519355 C10.4903548,2.38690323 10.4213871,2.35770968 10.3414516,2.35770968 L9.75196774,2.35770968 C9.67225806,2.35770968 9.60316129,2.38690323 9.54487097,2.44519355 C9.48645161,2.50354839 9.45741935,2.57258065 9.45741935,2.65241935 L9.45741935,3.24180645 C9.45741935,3.32164516 9.48645161,3.39074194 9.54487097,3.44903226 C9.60303226,3.50735484 9.67225806,3.53651613 9.75196774,3.53651613 Z" id="Path"></path>
            </g>
        </g>
    </g>
</svg>