<?xml version="1.0" encoding="UTF-8"?>
<svg width="15px" height="15px" viewBox="0 0 15 15" version="1.1" xmlns="http://www.w3.org/2000/svg" xmlns:xlink="http://www.w3.org/1999/xlink">
    <!-- Generator: Sketch 52.3 (67297) - http://www.bohemiancoding.com/sketch -->
    <title>Fill 1 Copy</title>
    <desc>Created with Sketch.</desc>
    <g id="Britehouse-DD" stroke="none" stroke-width="1" fill="none" fill-rule="evenodd">
        <g id="Contact-us" transform="translate(-965.000000, -943.000000)" fill="#B5BBC1">
            <g id="Group-13" transform="translate(954.000000, 831.000000)">
                <path d="M25.6193713,123.352164 C25.5779317,123.227298 25.3142779,123.043353 24.8285923,122.800765 C24.6970205,122.724301 24.5095399,122.620428 24.2669886,122.488601 C24.0241458,122.356738 23.803754,122.235262 23.6061777,122.124282 C23.4082005,122.013303 23.2227244,121.905749 23.0494214,121.801841 C23.0217585,121.781066 22.9350159,121.720419 22.7893759,121.619608 C22.6435171,121.519089 22.5205831,121.444483 22.4197722,121.395827 C22.3192164,121.347462 22.2203007,121.323116 22.1231708,121.323116 C21.984492,121.323116 21.8111891,121.422032 21.6031526,121.619608 C21.3951162,121.817476 21.2042825,122.032328 21.0309431,122.264929 C20.8575672,122.497458 20.6736948,122.71231 20.4796538,122.910032 C20.2853212,123.107863 20.1256492,123.20667 20.0009294,123.20667 C19.9383144,123.20667 19.860246,123.189175 19.7666879,123.154733 C19.6732027,123.120109 19.6020228,123.090369 19.5531845,123.066424 C19.5047836,123.041968 19.4217221,122.993567 19.3037084,122.920492 C19.1854761,122.847636 19.1197267,122.807727 19.105877,122.800765 C18.1555353,122.273421 17.3404829,121.669904 16.660574,120.990251 C15.9808838,120.310232 15.3772574,119.495289 14.8500592,118.544802 C14.8431344,118.530916 14.8031526,118.464984 14.730369,118.347116 C14.6574761,118.229175 14.6088929,118.146005 14.5846196,118.097312 C14.5603462,118.048802 14.530861,117.977695 14.4962369,117.884027 C14.4616128,117.790396 14.4442278,117.712401 14.4442278,117.649895 C14.4442278,117.525139 14.5431071,117.365467 14.7408292,117.171207 C14.9385148,116.977057 15.1536219,116.793185 15.3859317,116.619845 C15.6184237,116.446542 15.8333121,116.255745 16.0310706,116.047672 C16.2287563,115.839563 16.3275991,115.666187 16.3275991,115.527508 C16.3275991,115.430415 16.3033257,115.331499 16.2548155,115.230907 C16.2062688,115.130132 16.1316993,115.007162 16.0310706,114.861412 C15.9304055,114.715772 15.8697221,114.629103 15.8488747,114.601221 C15.7449294,114.427954 15.6375216,114.242369 15.5263964,114.044647 C15.4152711,113.846961 15.2939772,113.626606 15.1621139,113.383836 C15.0303599,113.141175 14.9263781,112.953804 14.8499863,112.82205 C14.6073257,112.33651 14.4235262,112.072784 14.2986241,112.031308 C14.250041,112.010497 14.1771481,112 14.0801276,112 C13.8927198,112 13.6482369,112.034661 13.3464966,112.104091 C13.0446469,112.173449 12.8071253,112.246196 12.6336765,112.322624 C12.2868155,112.468264 11.91918,112.891371 11.5306606,113.591945 C11.1768747,114.243863 11,114.889148 11,115.527289 C11,115.714442 11.0121367,115.896565 11.03641,116.073585 C11.0606834,116.25046 11.1040547,116.449968 11.1665604,116.671964 C11.2289567,116.893923 11.2792893,117.058806 11.3173394,117.166178 C11.355426,117.273622 11.426533,117.466096 11.5306241,117.743672 C11.6345695,118.021175 11.6970752,118.191089 11.7178861,118.253485 C11.960656,118.933358 12.2485467,119.540301 12.5814852,120.074497 C13.1292756,120.962442 13.8768292,121.880018 14.8237084,122.827007 C15.7706241,123.77385 16.6880547,124.521367 17.5760364,125.069376 C18.1101595,125.402278 18.7173212,125.690132 19.3970843,125.933084 C19.4595535,125.953822 19.6294305,126.016182 19.9068246,126.120456 C20.184328,126.22451 20.3768747,126.295617 20.4843189,126.333777 C20.5917995,126.371936 20.7567198,126.422305 20.9784966,126.484811 C21.2007472,126.547317 21.4000364,126.590688 21.5769112,126.615144 C21.7538952,126.639125 21.9360182,126.651444 22.1232073,126.651444 C22.7613121,126.651444 23.4066333,126.47446 24.058697,126.120711 C24.7591617,125.732374 25.1821959,125.364665 25.3278724,125.017513 C25.4044829,124.844246 25.4770478,124.606651 25.5464055,124.304838 C25.6159818,124.003098 25.650533,123.758651 25.650533,123.571317 C25.6507517,123.473895 25.6402916,123.401185 25.6193713,123.352164" id="Fill-1-Copy"></path>
            </g>
        </g>
    </g>
</svg>