<?xml version="1.0" encoding="UTF-8"?>
<svg width="19px" height="15px" viewBox="0 0 19 15" version="1.1" xmlns="http://www.w3.org/2000/svg" xmlns:xlink="http://www.w3.org/1999/xlink">
    <!-- Generator: Sketch 52.3 (67297) - http://www.bohemiancoding.com/sketch -->
    <title>Fill 1</title>
    <desc>Created with Sketch.</desc>
    <g id="Britehouse-DD" stroke="none" stroke-width="1" fill="none" fill-rule="evenodd">
        <g id="Contact-us" transform="translate(-961.000000, -993.000000)" fill="#B5BBC1">
            <g id="Group-13" transform="translate(954.000000, 831.000000)">
                <path d="M24.3149157,163.935417 L24.3149157,164.049859 C24.3149157,164.459116 24.1537859,164.91528 23.8312346,165.418169 C23.5086469,165.921057 23.1599271,166.321749 22.785549,166.619954 C21.4465057,167.674569 20.0558178,168.773977 18.6126105,169.918579 C18.5710615,169.953239 18.449549,170.055508 18.2482916,170.225385 C18.0473257,170.395517 17.8876902,170.52574 17.769713,170.6158 C17.65159,170.706114 17.4974214,170.81538 17.3067335,170.943563 C17.1158998,171.071781 16.9407745,171.167344 16.7812483,171.229704 C16.6217221,171.291918 16.4725467,171.32308 16.3338679,171.32308 L16.3235171,171.32308 L16.3130569,171.32308 C16.1743417,171.32308 16.0253121,171.291918 15.8656765,171.229704 C15.7061503,171.167344 15.5309157,171.071781 15.3402278,170.943563 C15.1495399,170.815344 14.9951891,170.706114 14.8772483,170.6158 C14.7593804,170.52574 14.5997084,170.395517 14.3986333,170.225385 C14.1974487,170.055508 14.0758998,169.953239 14.0343508,169.918579 C12.5914715,168.773941 11.2006378,167.674569 9.86166743,166.619954 C8.84189522,165.815362 8.332082,164.830214 8.332082,163.664765 C8.332082,163.57467 8.36499317,163.496565 8.43092483,163.430743 C8.49685649,163.364811 8.57485194,163.331827 8.66498405,163.331827 L23.9822323,163.331827 C24.037631,163.362989 24.0862506,163.371663 24.1279089,163.357886 C24.1695672,163.343854 24.2007289,163.36995 24.2214305,163.435809 C24.2422415,163.50174 24.2613394,163.532902 24.2786515,163.529476 C24.296,163.525977 24.3064966,163.569312 24.309959,163.659626 C24.3132027,163.749759 24.3149522,163.795134 24.3149522,163.795134 L24.3149522,163.935417 L24.3149157,163.935417 Z M24.3149157,174.986169 C24.3149157,175.076374 24.2820046,175.154405 24.216,175.220301 C24.1500319,175.286269 24.0720729,175.318925 23.9820137,175.318925 L8.66483827,175.318925 C8.5746697,175.318925 8.49660137,175.286269 8.4307426,175.220301 C8.36481093,175.154405 8.33189977,175.076374 8.33189977,174.986169 L8.33189977,166.994661 C8.55385877,167.244392 8.79320273,167.473349 9.04989522,167.681421 C10.9091025,169.110451 12.3866788,170.282752 13.4827699,171.198506 C13.8365558,171.496856 14.1244465,171.729203 14.3464419,171.895727 C14.5684009,172.062323 14.8684282,172.230487 15.246451,172.400364 C15.6245103,172.570497 15.980082,172.655162 16.3130569,172.655162 L16.3235171,172.655162 L16.3338679,172.655162 C16.6667699,172.655162 17.0224875,172.570497 17.4004009,172.400364 C17.7785695,172.230487 18.078779,172.06236 18.3006651,171.895727 C18.5225877,171.729203 18.8105513,171.496856 19.1643736,171.198506 C20.2604647,170.282752 21.7378588,169.110451 23.597139,167.681421 C23.8538314,167.473385 24.0932847,167.244392 24.3149157,166.994661 L24.3149157,174.986169 Z M25.1579226,162.489039 C24.8319089,162.162952 24.4398907,162 23.982123,162 L8.66494761,162 C8.20710706,162 7.81508884,162.162952 7.48903872,162.489039 C7.16295216,162.815052 7,163.207034 7,163.664948 L7,174.986424 C7,175.44441 7.16295216,175.836064 7.48903872,176.162077 C7.81505239,176.488383 8.20707062,176.651262 8.66494761,176.651262 L23.9821595,176.651262 C24.4399271,176.651262 24.8319089,176.488383 25.157959,176.162077 C25.4841185,175.836064 25.6469977,175.444191 25.6469977,174.986424 L25.6469977,163.664948 C25.6469613,163.207034 25.4841185,162.815052 25.1579226,162.489039 Z" id="Fill-1"></path>
            </g>
        </g>
    </g>
</svg>