<?xml version="1.0" encoding="UTF-8"?>
<svg width="21px" height="16px" viewBox="0 0 21 16" version="1.1" xmlns="http://www.w3.org/2000/svg" xmlns:xlink="http://www.w3.org/1999/xlink">
    <!-- Generator: Sketch 52.3 (67297) - http://www.bohemiancoding.com/sketch -->
    <title>font-selection-editor</title>
    <desc>Created with Sketch.</desc>
    <g id="Britehouse-DD" stroke="none" stroke-width="1" fill="none" fill-rule="evenodd">
        <g id="Text-fields---webpart" transform="translate(-851.000000, -119.000000)" fill="#B5BBC1">
            <g id="font-selection-editor" transform="translate(851.000000, 118.983016)">
                <path d="M15.7333201,10.2394839 C15.5820943,10.1791365 15.449727,10.2056179 15.3364566,10.3188089 L14.610938,11.0443275 C14.5430074,11.112139 14.5087841,11.1954342 14.5087841,11.2934988 L14.5087841,12.7219057 C14.5087841,13.2207643 14.3315931,13.6475236 13.9764566,14.0028586 C13.6210422,14.357995 13.1942829,14.5355831 12.6955037,14.5355831 L3.26447643,14.5355831 C2.76573697,14.5355831 2.33873945,14.357995 1.98352357,14.0028586 C1.62830769,13.6475633 1.45079901,13.220804 1.45079901,12.7219057 L1.45079901,3.29111663 C1.45079901,2.79233747 1.62830769,2.36537965 1.98352357,2.01012407 C2.33873945,1.65498759 2.76573697,1.4773995 3.26447643,1.4773995 L12.6955831,1.4773995 C12.8617767,1.4773995 13.031861,1.50006948 13.2056377,1.54544913 C13.3419355,1.59074938 13.4625906,1.56057568 13.5682779,1.45476923 L14.1235533,0.899334988 C14.2143127,0.808774194 14.248139,0.699116625 14.2255881,0.570679901 C14.2029181,0.449826303 14.1348288,0.362878412 14.0214789,0.310034739 C13.61334,0.121369727 13.1713747,0.0266004963 12.6953052,0.0266004963 L3.26447643,0.0266004963 C2.36530025,0.0266004963 1.59630769,0.345885856 0.95769727,0.984456576 C0.31928536,1.6231067 0,2.39190074 0,3.29119603 L0,12.7221836 C0,13.6213201 0.31928536,14.3902333 0.957736973,15.028804 C1.59630769,15.6675335 2.36533995,15.9868189 3.26451613,15.9868189 L12.6953449,15.9868189 C13.5944814,15.9868189 14.3633945,15.6675335 15.0019653,15.028804 C15.6406948,14.3902333 15.9599801,13.6213598 15.9599801,12.7221836 L15.9599801,10.568536 C15.9599404,10.4095682 15.8842283,10.3001092 15.7333201,10.2394839 Z" id="Path"></path>
                <path d="M7.25443176,9.8205062 L7.25443176,13.0848635 L10.5191067,13.0848635 L18.1363772,5.46763275 L14.8717419,2.20311663 L7.25443176,9.8205062 Z M10.065469,11.9967841 L9.43063027,11.9965062 L9.43063027,10.9086253 L8.34255087,10.9086253 L8.34255087,10.2740248 L9.65748883,8.95908685 L11.3804069,10.6821638 L10.065469,11.9967841 Z M15.0416278,4.20934988 L11.0741439,8.17671464 C10.9457469,8.30538958 10.8210025,8.30908189 10.7001092,8.18814888 C10.5792953,8.06721588 10.5829876,7.94255087 10.7115037,7.81419355 L14.6789876,3.84678908 C14.8073449,3.71819355 14.9318114,3.71446154 15.0530223,3.83539454 C15.1742333,3.95632754 15.169866,4.08095285 15.0416278,4.20934988 Z" id="Shape" fill-rule="nonzero"></path>
                <path d="M19.9045558,2.15773697 L18.1816377,0.434818859 C17.9701042,0.223205955 17.7133102,0.117399504 17.4108983,0.117399504 C17.1085658,0.117399504 16.8516526,0.223205955 16.6402382,0.434818859 L15.5973002,1.47751861 L18.8619355,4.74219355 L19.9045955,3.69929529 C20.116129,3.48780149 20.2218561,3.23080893 20.2218561,2.92851613 C20.2218561,2.62622333 20.1160893,2.36934988 19.9045558,2.15773697 Z" id="Path"></path>
            </g>
        </g>
    </g>
</svg>